Coordinates
version=1
nRows=9
nColumns=42
inDegrees=yes

Units are S.I. units (second, meters, Newtons, ...)
If the header above contains a line with 'inDegrees', this indicates whether rotational values are in degrees (yes) or radians (no).

endheader
time	pelvis_tilt	pelvis_list	pelvis_rotation	pelvis_tx	pelvis_ty	pelvis_tz	hip_flexion_r	hip_adduction_r	hip_rotation_r	knee_angle_r	knee_angle_r_beta	ankle_angle_r	subtalar_angle_r	mtp_angle_r	hip_flexion_l	hip_adduction_l	hip_rotation_l	knee_angle_l	knee_angle_l_beta	ankle_angle_l	subtalar_angle_l	mtp_angle_l	lumbar_extension	lumbar_bending	lumbar_rotation	sh_tx_r	sh_ty_r	sh_tz_r	sh_plane_elev_r	sh_elev_r	sh_axial_rot_r	elbow_flex_r	pro_sup_r	sh_tx_l	sh_ty_l	sh_tz_l	sh_plane_elev_l	sh_elev_l	sh_axial_rot_l	elbow_flex_l	pro_sup_l
      0.00000000	     -3.73508655	      0.02100873	     -1.11406478	      0.29336144	      0.92388787	      0.00784197	      1.79891979	     -5.33619310	     -7.24574962	      3.96881177	      0.06926883	     -4.69376714	    -17.84351519	     -4.92131151	      4.58846620	     -3.79772924	     -8.14013504	      8.02061519	      0.13998614	      8.93968058	     -8.43971809	     -4.92131151	     -2.23740202	      0.61218333	     -2.01301799	      0.00146326	     -0.01605813	     -0.00533113	     12.03298495	      5.93764534	      0.27621433	     27.47744016	     77.31728527	      0.00005881	     -0.01550652	     -0.00508776	     18.35055926	      7.39259527	     -2.13118294	     28.52076925	     69.16629613
      0.01694910	     -4.89756248	     -0.17300331	     -1.32224021	      0.29933304	      0.92225765	      0.01123499	      2.67453471	     -4.75911380	     -7.15183488	      3.48461107	      0.06081794	     -1.52665224	    -15.71113361	     -5.96651764	      5.75983832	     -4.12818365	     -9.14854445	      7.31690037	      0.12770400	     10.01885696	     -6.49598158	     -5.96651764	      0.61883509	      0.68399405	     -2.64868493	      0.00190093	     -0.01788014	     -0.00582896	      5.40172565	      4.13085119	      1.11474094	     26.61199460	     79.23728765	     -0.00086743	     -0.01729798	     -0.00494008	      7.75150893	      4.98052257	     -1.57285039	     28.41452431	     72.34766434
      0.03389830	     -5.18796470	      0.39829803	     -1.43633334	      0.29953065	      0.92188952	      0.01158991	      2.49440214	     -5.24572798	     -7.64911724	      2.61227862	      0.04559286	     -1.08410740	    -15.08712800	     -6.09427422	      5.79748346	     -3.70054626	     -9.97077738	      6.89290130	      0.12030382	     10.25338524	     -5.41652239	     -6.09427422	      1.23746740	     -0.30028148	     -2.83521563	      0.00100094	     -0.01798610	     -0.00578889	      5.06737320	      3.41524859	     -0.42420573	     26.39686252	     77.97538263	     -0.00342872	     -0.01733919	     -0.00471333	      7.82862286	      5.33944897	     -2.56331804	     27.55745173	     71.58113621
      0.05084750	     -4.88621738	      0.77786437	     -1.41371819	      0.29466349	      0.92244803	      0.00682045	      2.22985319	     -5.88715402	     -7.69861421	      2.43514151	      0.04250124	     -0.63241836	    -15.11203707	     -6.11534074	      5.05314954	     -3.12623227	    -10.23881526	      5.99630290	      0.10465523	      9.98438582	     -5.16666248	     -6.11534074	      1.00438975	     -0.93642398	     -2.91206596	      0.00222514	     -0.01818839	     -0.00569478	      4.86128617	      3.27045601	     -0.35726461	     26.41043982	     77.97198097	     -0.00394783	     -0.01757876	     -0.00452658	      7.50530578	      5.74434901	     -2.68522719	     27.80329478	     71.58621118
      0.06779660	     -4.36717129	      0.93249634	     -1.34174141	      0.29846663	      0.92088314	      0.00242072	      1.54585162	     -6.32917019	     -7.68806236	      2.22742545	      0.03887591	     -0.70518709	    -15.20379899	     -6.63752543	      4.06600565	     -2.71349693	    -10.25753639	      5.26815851	      0.09194671	      9.96434678	     -4.83597737	     -6.63752543	      0.45611355	     -1.08497455	     -3.24459305	      0.00391373	     -0.01825027	     -0.00539291	      4.41053365	      3.39711358	      1.07208647	     27.09066382	     76.34326423	     -0.00482079	     -0.01778737	     -0.00438635	      6.70667413	      5.60935225	     -2.64948737	     28.12967752	     70.40513211
      0.08474580	     -4.08468609	      1.07662604	     -1.23106024	      0.29837509	      0.92449517	      0.00194135	      1.15755716	     -6.63382152	     -7.93280850	      2.10649556	      0.03676528	     -0.42113185	    -14.99408278	     -6.66803324	      3.61480592	     -2.38619529	    -10.12288898	      4.91539131	      0.08578976	      9.86702244	     -5.02982651	     -6.66803324	      0.36507498	     -1.20247567	     -3.43121325	      0.00484767	     -0.01826634	     -0.00515402	      5.13150699	      3.51074670	      1.05742854	     26.92699255	     76.01736247	     -0.00382949	     -0.01789965	     -0.00430661	      7.23964954	      5.78953262	     -2.81702327	     28.29805885	     70.11256381
      0.10169490	     -3.75759703	      1.21242449	     -1.07847015	      0.30218719	      0.92500855	     -0.00268690	      0.48380434	     -6.98006558	     -8.09146601	      1.75779884	      0.03067938	     -0.44610777	    -14.92090086	     -6.68043219	      3.07282604	     -2.07073379	    -10.18283949	      4.64836120	      0.08112921	      9.68174073	     -5.04794259	     -6.68043219	      0.31296152	     -1.21511904	     -3.54102579	      0.00496811	     -0.01822012	     -0.00488452	      5.24425159	      3.66672702	      1.38383419	     26.77918553	     76.06347611	     -0.00258072	     -0.01797526	     -0.00424554	      7.18003081	      5.61099812	     -2.77602497	     28.24752810	     70.08068414
      0.11864410	     -3.39093179	      1.28766550	     -0.99206451	      0.30177306	      0.92541350	     -0.00269365	     -0.10050955	     -7.17871008	     -8.25418070	      1.65731545	      0.02892561	     -0.22986376	    -14.74844260	     -6.89541899	      2.43915065	     -1.82943956	    -10.03052342	      4.32651505	      0.07551193	      9.48371303	     -5.37851815	     -6.89541899	      0.05489756	     -1.27982912	     -4.19272995	      0.00715313	     -0.01818298	     -0.00478513	      6.00745203	      3.84332084	      2.20479513	     26.90456904	     75.15457319	     -0.00278898	     -0.01800104	     -0.00420075	      6.82798812	      5.65707152	     -3.06241963	     28.48471619	     68.70016675
      0.13559320	     -3.33784321	      1.33003365	     -0.93624228	      0.29722870	      0.92570309	     -0.00680742	     -0.10488564	     -7.42567549	     -8.38291271	      1.67906893	      0.02930528	     -0.19801986	    -14.82853447	     -6.89759570	      2.35343782	     -1.59042330	     -9.96496967	      4.14560091	      0.07235439	      9.46677993	     -5.38693101	     -6.89759570	      0.14595893	     -1.26022210	     -4.25236612	      0.00787745	     -0.01816871	     -0.00468354	      6.01178819	      4.05497322	      2.22416371	     26.93059330	     75.17216084	     -0.00047414	     -0.01805836	     -0.00412885	      6.82876021	      5.60345866	     -3.04754159	     28.55399964	     68.69709112
